/* XPM */
static char *result[] = {
/* columns rows colors chars-per-pixel */
"50 50 100 2 ",
"   c #FF7600",
".  c #FF7D00",
"X  c #FF8401",
"o  c #FF8B01",
"O  c #FF8C09",
"+  c #FF9201",
"@  c #FF9B02",
"#  c #FF940C",
"$  c #FF9C0B",
"%  c #FF8E15",
"&  c #FF9610",
"*  c #FF9D13",
"=  c #FF9019",
"-  c #FF9C1D",
";  c #FFA402",
":  c #FFAA05",
">  c #FFA50C",
",  c #FFAB0D",
"<  c #FFB50D",
"1  c #FFBA0F",
"2  c #FFA414",
"3  c #FFAC14",
"4  c #FFA41B",
"5  c #FFAC1B",
"6  c #FFB016",
"7  c #FFBA13",
"8  c #FFB21C",
"9  c #FFB91E",
"0  c #FF9F22",
"q  c #FF9F33",
"w  c #FFA323",
"e  c #FFAB22",
"r  c #FFA52C",
"t  c #FFAA2A",
"y  c #FFB323",
"u  c #FFBB23",
"i  c #FFB629",
"p  c #FFA333",
"a  c #FFAD34",
"s  c #FFA63A",
"d  c #FFAE3C",
"f  c #FFB13D",
"g  c #FFC300",
"h  c #FFC108",
"j  c #FFCA0E",
"k  c #FFD704",
"l  c #FFDB0F",
"z  c #FFCB19",
"x  c #FFD614",
"c  c #FFDB14",
"v  c #FFD41C",
"b  c #FFC423",
"n  c #FFCC26",
"m  c #FFCD29",
"M  c #FFD523",
"N  c #FFDA23",
"B  c #FFD62A",
"V  c #FFDA2B",
"C  c #FFE123",
"Z  c #FFE02E",
"A  c #FFAE43",
"S  c #FFB342",
"D  c #FFB64A",
"F  c #FFB84E",
"G  c #FFB652",
"H  c #FFBC54",
"J  c #FFBF59",
"K  c #FFC447",
"L  c #FFC847",
"P  c #FFC448",
"I  c #FFC948",
"U  c #FFC25E",
"Y  c #FFD454",
"T  c #FFDB57",
"R  c #FFD758",
"E  c #FFDD59",
"W  c #FFE25C",
"Q  c #FFC461",
"!  c #FFCA65",
"~  c #FFCA6A",
"^  c #FFD46E",
"/  c #FFCE71",
"(  c #FFD173",
")  c #FFDA76",
"_  c #FFD479",
"`  c #FFD87E",
"'  c #FFE561",
"]  c #FFDC84",
"[  c #FFDE89",
"{  c #FFE583",
"}  c #FFE987",
"|  c #FFE28C",
" . c #FFEB89",
".. c #FFF08C",
"X. c #FFE692",
"o. c #FFEA96",
"O. c #FFED9A",
"+. c #FFF09E",
"@. c #FFF3A3",
"#. c None",
/* pixels */
"#.#.#.#.#.#.#.#.#.#.#.#.#.#.#.#.#.#.#.e e e t w 4 & o X o o o #.#.#.#.#.#.#.#.#.#.#.#.#.#.#.#.#.#.#.",
"#.#.#.#.#.#.#.#.#.#.#.#.#.#.#.#.#.y i e e 5 5 5 - O X X o o o + + #.#.#.#.#.#.#.#.#.#.#.#.#.#.#.#.#.",
"#.#.#.#.#.#.#.#.#.#.#.#.#.#.5 e y y 8 8 5 3 2 , $ o X X o o o + + o X o #.#.#.#.#.#.#.#.#.#.#.#.#.#.",
"#.#.#.#.#.#.#.#.#.#.#.#.e y y e 8 6 , : : : > , $ o X X X X X o o o o + + X #.#.#.#.#.#.#.#.#.#.#.#.",
"#.#.#.#.#.#.#.#.#.#.#.e y u 9 3 ; ; 2 5 t d f S d w + # # o X X X X o + + + o #.#.#.#.#.#.#.#.#.#.#.",
"#.#.#.#.#.#.#.#.#.5 y u y 5 , : > t f H Q ~ ( _ ~ K 1 7 8 5 2 & o X X X o + + + o #.#.#.#.#.#.#.#.#.",
"#.#.#.#.#.#.#.#.e y y u 5 ; 2 a D U ( ` [ | X.o.{ E x M B m b y 5 * O X X o + + + + #.#.#.#.#.#.#.#.",
"#.#.#.#.#.#.#.5 u u e 4 ; 2 f U _ | o.+.+.+.+.+.} W c N V Z V V M u 5 # X X X o + + o #.#.#.#.#.#.#.",
"#.#.#.#.#.#.5 y i 8 ; ; e U _ | X.O.o.O.o.O.O.O.{ E x N B V V V V B M b 2 o . X o + + o #.#.#.#.#.#.",
"#.#.#.#.#.5 y u e ; > d Q ` X.o.O.O.o.o.o.o.o.O.} E x N B B B V V V V V b 5 # X X o + + o #.#.#.#.#.",
"#.#.#.#.#.y u e ; 2 S ~ | o.+.O.O.O.o.o.o.o.O.O.} W x N B V V B V V V Z V m 8 # X X + + + #.#.#.#.#.",
"#.#.#.#.e u u 4 @ d ! [ +.+.o.o.o.X.o.o.o.o.O.O.{ T x v B V V V B B B V Z V m 8 # . X + + o #.#.#.#.",
"#.#.#.e y y 5 ; e Q | O.+.o.o.o.O.o.O.X.o.o.o.[ ^ L j B B V V V B V V B V V Z n 5 o . o + + X #.#.#.",
"#.#.#.y u 5 > 3 J ] O.+.o.X.X.+.o.o.o.o.o.O.O._ G e 1 B Z B V V V V V B B V Z V b 3 X X o + o #.#.#.",
"#.#.e y 9 , 2 f _ X.+.O.o.o.o.o.O.O.o.o.O.+.O.~ q + 3 V Z V B V V V V V B B V Z B u # X X + + o #.#.",
"#.#.e e 3 ; a U | O.O.X.o.o.o.o.X.X.O.O.O.o.| Q p + , n V V Z V B V V B V V B V B n 5 O X o o o #.#.",
"#.#.e 8 ; > D _ X.O.O.o.o.o.o.o.O.O.O.O.[ _ U f # o o 4 8 9 n B V V B V V V B V V B u * X X + o #.#.",
"#.y y 3 ; t Q | o.O.o.o.o.o.o.o.X.O.o.[ ~ D r w 0 = X X O * 9 n V V B V B V B V V V B 5 o X o + + #.",
"#.y 9 , > f ( O.O.o.o.o.o.O.o.o.O.O.| / A ; t G H d @ o   O 8 n V Z B V V V B V V V B u # X o + + #.",
"w y 8 : e H ` O.O.o.o.o.o.o.o.o.O.X.] H - r J _ ) Y h < $ & 9 M V Z B B V V V B B V V b 2 X X o o o ",
"5 y 5 : t ! [ +.o.o.o.o.o.O.o.o.@.X._ S @ D ] O. .' k v n b M B V V V V V V V B B V Z n 5 O X o + o ",
"w e 3 , a ~ | +.o.o.o.o.o.o.o.o.O.o./ d @ A _ X. .' c C V V V B V B V B V B V V B V V B 9 O X X o X ",
"e 5 , > f ( X.+.o.o.o.o.O.o.o.o.+.o._ S $ 4 F / ^ T N N V Z V V B V B V V B V B B V Z B 9 # X X o o ",
"t 4 > > S ( o.+.o.o.o.o.o.o.o.o.O.O.[ Q t @ - d S t 6 9 n V V V V B V V V V V V B B V B 9 # X X X X ",
"e 2 , > S _ o.+.o.o.o.o.o.o.o.o.O.O.X.` U A r 4 $ o O # 2 u m B V V B V V V V B B V V V u # X X o o ",
"w 5 ; 2 S _ o.O.o.o.o.O.o.O.o.o.o.o.O.X.[ / Q F p % .   X & 5 n B V V B V V V B V B V V b # X X o X ",
"t 5 > > f _ X.+.o.o.o.o.o.o.o.o.o.o.O.+.O.o.[ _ ! f @ o     # 9 B Z V V B V V V B V V V 9 # X X X o ",
"4 e , > f /  .+.o.o.o.o.o.O.o.O.O.o.O.O.O.+.@.@.{ R g : o . X 5 M V V B B V V B B V V B 9 # X X o X ",
"e 5 3 > d ~ | +.o.o.o.o.o.O.o.o.+.O.| [ | O.@.@...W x z > . X 2 n V V B B V V V B V Z B 8 O X X o X ",
"e e 3 : t Q | +.O.o.o.o.o.o.o.o.+. .` Q Q _ [ X.{ W x z $   X 5 M V V V V V B B B V V n 5 O X o o o ",
"4 y 8 : 4 H ` O.o.o.o.o.o.o.o.O.O.| ~ 4 4 A U / ! L < ; X   O 9 B V V V B V V V V V V b 2 o X o + X ",
"#.i 8 < 2 S / O.O.o.o.o.O.o.o.O.O.| / S 2 $ 5 f S r + X   O 2 b B Z B B V V B B V V B u # X o + + #.",
"#.y y 6 ; t U | o.+.o.o.o.o.o.O.O.X.] / J S a e - O X O # 5 n B B V B V V V B V V V m 5 o X o + o #.",
"#.#.e 8 ; > D _ X.O.o.o.o.o.o.o.o.o.o.X.[ _ ~ S - o o 5 9 n B B V B B V V B B V V B b * X X o o #.#.",
"#.#.e e 3 ; a U | O.+.X.o.o.o.o.o.O.+.O.O.+.X.~ s @ , B V Z Z V V B V V V V B V V m 5 O X o o o #.#.",
"#.#.5 y 9 , 2 f _ X.+.o.o.o.o.o.o.o.O.O.o.+.o.~ q + 3 V Z V B V V V V V B B V Z B u # X o + + X #.#.",
"#.#.#.y u 8 > 2 H ] O.+.o.X.o.o.o.o.o.X.X.O.O._ G t 1 B V B B B B V B B B V Z V b 2 X X o + + #.#.#.",
"#.#.#.e y y 5 ; t Q [ O.+.+.o.o.o.O.o.o.O.O.o.[ ^ L j M V V V B V V V B V Z V n 5 o X o + o X #.#.#.",
"#.#.#.#.e u u 2 ; d ~ [ +.+.o.o.X.o.X.O.O.X.O.o.{ E x N B V V V B B B V Z V M 8 # . X + + o #.#.#.#.",
"#.#.#.#.#.y y y ; > f ! | o.+.O.O.o.O.O.X.O.O.O.{ W x N B V V B N V V Z V n 8 & X X o @ + #.#.#.#.#.",
"#.#.#.#.#.5 y y 5 ; 2 f Q ` o.O.O.O.o.o.o.o.O.O.{ W x N B V V B V V V B n 5 # X X o + + o #.#.#.#.#.",
"#.#.#.#.#.#.y y i 5 ; ; t H _ | X.O.O.o.o.O.O.O.{ E x N V V V V V B M 9 2 o . X o + + o #.#.#.#.#.#.",
"#.#.#.#.#.#.#.5 u y y 2 ; 2 f U _ | O.O.+.+.+.+. .W x N V Z V V B u 5 # X X X o + + X #.#.#.#.#.#.#.",
"#.#.#.#.#.#.#.#.e y y u 5 > 2 t D Q / ` [ | X.o.{ E x M M m b u 5 * O X X X @ + o o #.#.#.#.#.#.#.#.",
"#.#.#.#.#.#.#.#.#.5 y u y 5 , : > t f H ! ~ ( _ ~ K 7 7 8 5 * * o X X X o + + + o #.#.#.#.#.#.#.#.#.",
"#.#.#.#.#.#.#.#.#.#.#.e y u 9 3 : ; > e t a f S d w + # # o X X X X o + + + o #.#.#.#.#.#.#.#.#.#.#.",
"#.#.#.#.#.#.#.#.#.#.#.#.e y y e 8 6 , : ; , > > # o . X X X X o o + o + + o #.#.#.#.#.#.#.#.#.#.#.#.",
"#.#.#.#.#.#.#.#.#.#.#.#.#.#.e 5 e 9 8 8 5 3 , , $ o X X o o o + + o X o #.#.#.#.#.#.#.#.#.#.#.#.#.#.",
"#.#.#.#.#.#.#.#.#.#.#.#.#.#.#.#.#.y y y e e e 5 - # X o o o + + + #.#.#.#.#.#.#.#.#.#.#.#.#.#.#.#.#.",
"#.#.#.#.#.#.#.#.#.#.#.#.#.#.#.#.#.#.#.e e e w t 4 # X o o X X #.#.#.#.#.#.#.#.#.#.#.#.#.#.#.#.#.#.#."
};
