/* XPM */
static char *_b5ffef6dbb04c34cdceb98aef094c9cQMvuMai0PQEAkAwB[] = {
/* columns rows colors chars-per-pixel */
"37 37 137 2 ",
"   c None",
".  c #FF7500",
"X  c #FF7D00",
"o  c #FF8301",
"O  c #FF8B01",
"+  c #FF8608",
"@  c #FF8B09",
"#  c #FF9201",
"$  c #FF9B01",
"%  c #FF940C",
"&  c #FF9B0C",
"*  c #FF9510",
"=  c #FF9C12",
"-  c #FF9918",
";  c #FFA402",
":  c #FFAB00",
">  c #FFA309",
",  c #FFAC0B",
"<  c #FFA415",
"1  c #FFAD12",
"2  c #FFA61B",
"3  c #FFAA1B",
"4  c #FFB511",
"5  c #FFB31C",
"6  c #FFB91B",
"7  c #FFA721",
"8  c #FFAB22",
"9  c #FFA22F",
"0  c #FFA92B",
"q  c #FFB324",
"w  c #FFBB22",
"e  c #FFAC34",
"r  c #FFA738",
"t  c #FFAE3C",
"y  c #FFB13F",
"u  c #FFC315",
"i  c #FFCE16",
"p  c #FFC71A",
"a  c #FFCC1E",
"s  c #FFD71F",
"d  c #FFDD1D",
"f  c #FFC323",
"g  c #FFCB26",
"h  c #FFCF28",
"j  c #FFD623",
"k  c #FFDB23",
"l  c #FFD62A",
"z  c #FFDA2B",
"x  c #FFE024",
"c  c #FFE02E",
"v  c #FFE130",
"b  c #FFB445",
"n  c #FFB64A",
"m  c #FFB84F",
"M  c #FFBA4F",
"N  c #FFBA4F",
"B  c #FFB950",
"V  c #FFBB50",
"C  c #FFBE55",
"Z  c #FFBD53",
"A  c #FFBD58",
"S  c #FFBE58",
"D  c #FFBE5A",
"F  c #FFBE58",
"G  c #FFC253",
"H  c #FFC354",
"J  c #FFC25D",
"K  c #FFC15D",
"L  c #FFCD5C",
"P  c #FFC564",
"I  c #FFC466",
"U  c #FFC363",
"Y  c #FFCC6D",
"T  c #FFCB6C",
"R  c #FFDA6A",
"E  c #FFDA6B",
"W  c #FFDC6A",
"Q  c #FFDA6A",
"!  c #FFCF73",
"~  c #FFD176",
"^  c #FFD174",
"/  c #FFD57D",
"(  c #FFD67D",
")  c #FFD77D",
"_  c #FFD77E",
"`  c #FFD77D",
"'  c #FFE06F",
"]  c #FFE06F",
"[  c #FFE574",
"{  c #FFE473",
"}  c #FFEA75",
"|  c #FFEC7D",
" . c #FFD980",
".. c #FFD981",
"X. c #FFD882",
"o. c #FFDA83",
"O. c #FFDD86",
"+. c #FFDE87",
"@. c #FFDC84",
"#. c #FFDF88",
"$. c #FFDF88",
"%. c #FFE28C",
"&. c #FFE38D",
"*. c #FFE58F",
"=. c #FFE38C",
"-. c #FFE792",
";. c #FFE793",
":. c #FFE793",
">. c #FFE893",
",. c #FFE894",
"<. c #FFE995",
"1. c #FFEA95",
"2. c #FFEA96",
"3. c #FFEB96",
"4. c #FFEA97",
"5. c #FFEB97",
"6. c #FFEA96",
"7. c #FFEA98",
"8. c #FFEB98",
"9. c #FFEC98",
"0. c #FFEC99",
"q. c #FFED99",
"w. c #FFED9A",
"e. c #FFED9B",
"r. c #FFEE9B",
"t. c #FFEF9B",
"y. c #FFEE9C",
"u. c #FFEF9C",
"i. c #FFEF9D",
"p. c #FFED9A",
"a. c #FFF09D",
"s. c #FFF09E",
"d. c #FFF19E",
"f. c #FFF19F",
"g. c #FFF39F",
"h. c #FFF19E",
"j. c #FFF2A1",
/* pixels */
"                            2 7 8 8 - o o O O                             ",
"                      7 q q q 5 3 3 & o O O # # # o                       ",
"                  3 w 7 5 1 : ; ; ; # X o o o O O O # O                   ",
"                8 q w 1 > < e y n m y & & % @ o o O # # O                 ",
"            3 q w 3 > 2 e C Y ( %.%.Q a a f q < % o o o $ O O             ",
"          2 w q 2 ; 8 U  .>.u.a.a.a.[ k x z z z f 3 O o o # # O           ",
"        3 w 0 ; > b ( -.r.r.7.1.1.1.{ s k z z z z l f = o o # # O         ",
"        q q > < C O.r.r.r.1.1.1.1.r.{ j j z z z z z z g < o o # O         ",
"      8 w 2 > S O.a.r.1.1.1.1.7.7.1.' j j z z l z l z c g < o o $ O       ",
"    3 q 3 ; m O.a.r.>.r.r.7.1.1.r. .G u z z l z z z l z c g = X O # O     ",
"    w w > 8 ( r.r.1.1.1.7.1.1.7.a.I * , c z z z z z z l z z f O o # #     ",
"  7 8 1 2 K -.r.1.1.1.r.1.1.r.r.-.S * $ l z z z l z z l z z l 3 o O O o   ",
"  q 5 ; t _ r.3.1.1.7.1.7.r.-.! B 2 O o * < f l z l z z l z z f % o O #   ",
"  q , 2 C 1.1.r.1.1.1.1.r.>.~ e < b t % o X 3 l z l z l z z z z < o O #   ",
"7 q : 0 Y r.1.1.7.3.r.1.u.#.n $ S o.Q p 4 & 5 l c z z z z z l z 5 @ O # O ",
"7 q ; y _ a.3.1.7.7.1.1.u. .e - ( a.| d j l l z z z z z z z z z f % o O o ",
"7 3 ; n O.u.1.1.r.3.1.1.a. .e $ m ( W z k v z z z z z l z z l z g % o O O ",
"8 1 ; N %.a.7.1.1.7.7.1.a.*.I ; $ r r 1 6 g z z z z z z z l z z l = X o O ",
"7 3 ; N *.r.1.7.1.7.1.1.3.3.%.I m 8 O X + = f l z z z z z z z z l = o o O ",
"7 3 ; m %.a.1.7.r.3.r.3.1.r.a.1.#.^ n # X . % f z z z z z z z c g = o o o ",
"7 3 : n O.u.1.1.1.3.r.1.1.r.1.r.j.j.[ i , o X 5 z z l z z z z z g = o O O ",
"3 8 ; b ( u.1.1.1.7.1.1.r.%.~  .7.u.} x a O o 5 l z l z l j z z f % o O O ",
"3 q : 0 T r.7.1.1.r.1.r.r.! 2 r D ~ L 6 > . o 6 z z z z z z z z 6 @ o # o ",
"  q 1 2 C >.r.7.1.1.1.7.7.( n 2 ; e 9 @ X o 3 l z z z z z z z z < o O #   ",
"  q 5 ; y _ r.3.1.7.1.7.1.>.O.Y S 0 # o < 5 h z z z z z l z z f % o O O   ",
"  2 8 1 < K >.r.1.1.7.1.1.u.a.r.1.U - > z z z z z z z l l z l 3 o O O o   ",
"    q w > 8 _ r.r.-.7.1.1.1.1.7.a.I % , v z l l z z z l z z f O o # #     ",
"    7 q 7 ; b O.a.r.1.1.7.r.1.1.r. .H u l z l z l z l z z g = o o # O     ",
"      8 f 2 > C #.j.r.1.1.1.1.r.7.1.{ s k z z z z z z z h 2 o o $ O       ",
"        q q > < S O.7.r.r.7.1.1.7.r.[ j l l z z z z z g < o o # #         ",
"        3 w q > > b ( ,.r.1.1.1.1.1.' s k z z z z z f = o o O # O         ",
"          3 q q 2 ; 8 K  .-.u.a.a.a.[ k x z z z f 3 O o o # # o           ",
"            3 q w 8 > 2 e C Y ( %.%.Q s p f 5 < % o o O $ # O             ",
"                5 q w 1 ; 2 0 y n N t & % * @ o o O # # O                 ",
"                  7 w 8 5 1 : : ; ; # X o o o O O O # O                   ",
"                      7 q w q 8 3 3 & o O O # # # o                       ",
"                            2 7 8 8 - o O o O                             "
};
