/* XPM */
static char *result[] = {
/* columns rows colors chars-per-pixel */
"30 30 85 1 ",
"  c black",
". c #010101",
"X c #020202",
"o c gray1",
"O c #040404",
"+ c gray2",
"@ c #060606",
"# c #070707",
"$ c gray3",
"% c #090909",
"& c gray4",
"* c #0B0B0B",
"= c #0C0C0C",
"- c gray5",
"; c #0E0E0E",
": c gray6",
"> c #101010",
", c #111111",
"< c gray7",
"1 c #131313",
"2 c gray8",
"3 c #151515",
"4 c #161616",
"5 c gray9",
"6 c #181818",
"7 c #191919",
"8 c gray10",
"9 c #1B1B1B",
"0 c gray11",
"q c #1D1D1D",
"w c #1E1E1E",
"e c gray12",
"r c #202020",
"t c gray13",
"y c #222222",
"u c #232323",
"i c gray14",
"p c #252525",
"a c gray15",
"s c #272727",
"d c #282828",
"f c gray16",
"g c #2A2A2A",
"h c gray17",
"j c #2C2C2C",
"k c #2D2D2D",
"l c gray18",
"z c #2F2F2F",
"x c gray19",
"c c #313131",
"v c #323232",
"b c #343434",
"n c #353535",
"m c gray21",
"M c #373737",
"N c gray22",
"B c #393939",
"V c #3A3A3A",
"C c gray23",
"Z c #3C3C3C",
"A c gray24",
"S c #3E3E3E",
"D c #3F3F3F",
"F c gray25",
"G c #414141",
"H c gray26",
"J c #434343",
"K c #444444",
"L c gray27",
"P c #464646",
"I c gray28",
"U c #484848",
"Y c #494949",
"T c gray29",
"R c #4B4B4B",
"E c #4C4C4C",
"W c gray30",
"Q c #4E4E4E",
"! c #515151",
"~ c gray32",
"^ c #535353",
"/ c gray33",
"( c #555555",
") c #565656",
"_ c None",
/* pixels */
"______________________________",
"______________________________",
"______________________________",
"______________________________",
"___________(!E________________",
"_________)^EE__GGD____________",
"________/~HLWYLKJFD___________",
"_______R~LGUIHNmcvZAD_________",
"_______TYSGNzkgpepvNFG________",
"_______IFnmg78rqqtszZLK_______",
"______JFbpaw4,1,>2wslNKI______",
"______FVg0w<:&%$=:17rkGTT_____",
"______FVd86;@Ooo@$>9eiMUR_____",
"_____SAnd0:&oX..XO$<ezMCYT____",
"_____SVcd6:%o.  Xo%:7hBmAP____",
"______Scy7;&o.  Xo#,5emCnF____",
"_____DAjrw,*+XXXX+-17dCAMS____",
"_____SGNayq,$+oX#&:8uxAFAS____",
"______FGngt3>*+%-;2eavZSAD____",
"______DJSma75,41,4wesAD_______",
"________ULvssur8tagabGS_______",
"______JLLPHAVfyacbMAGF________",
"______LYKADFANNVKPJIKG________",
"________RILURQTE!QT___________",
"_________Q~^/~~~______________",
"______________________________",
"______________________________",
"______________________________",
"______________________________",
"______________________________"
};
