/* XPM */
static char *result[] = {
/* columns rows colors chars-per-pixel */
"50 50 88 1 ",
"  c black",
". c #010101",
"X c #020202",
"o c gray1",
"O c #040404",
"+ c gray2",
"@ c #060606",
"# c #070707",
"$ c gray3",
"% c #090909",
"& c gray4",
"* c #0B0B0B",
"= c #0C0C0C",
"- c gray5",
"; c #0E0E0E",
": c gray6",
"> c #101010",
", c #111111",
"< c gray7",
"1 c #131313",
"2 c gray8",
"3 c #151515",
"4 c #161616",
"5 c gray9",
"6 c #181818",
"7 c #191919",
"8 c gray10",
"9 c #1B1B1B",
"0 c gray11",
"q c #1D1D1D",
"w c #1E1E1E",
"e c gray12",
"r c #202020",
"t c gray13",
"y c #222222",
"u c #232323",
"i c gray14",
"p c #252525",
"a c gray15",
"s c #272727",
"d c #282828",
"f c gray16",
"g c #2A2A2A",
"h c gray17",
"j c #2C2C2C",
"k c #2D2D2D",
"l c gray18",
"z c #2F2F2F",
"x c gray19",
"c c #313131",
"v c #323232",
"b c gray20",
"n c #343434",
"m c #353535",
"M c gray21",
"N c #373737",
"B c gray22",
"V c #393939",
"C c #3A3A3A",
"Z c gray23",
"A c #3C3C3C",
"S c gray24",
"D c #3E3E3E",
"F c #3F3F3F",
"G c gray25",
"H c #414141",
"J c gray26",
"K c #434343",
"L c #444444",
"P c gray27",
"I c #464646",
"U c gray28",
"Y c #484848",
"T c #494949",
"R c gray29",
"E c #4B4B4B",
"W c #4C4C4C",
"Q c gray30",
"! c #4E4E4E",
"~ c gray31",
"^ c #505050",
"/ c #515151",
"( c gray32",
") c #535353",
"_ c gray33",
"` c #555555",
"' c #565656",
"] c None",
/* pixels */
"]]]]]]]]]]]]]]]]]]]]]]]]]]]]]]]]]]]]]]]]]]]]]]]]]]",
"]]]]]]]]]]]]]]]]]]]]]]]]]]]]]]]]]]]]]]]]]]]]]]]]]]",
"]]]]]]]]]]]]]]]]]]]]]]]]]]]]]]]]]]]]]]]]]]]]]]]]]]",
"]]]]]]]]]]]]]]]]]]]]]]]]]]]]]]]]]]]]]]]]]]]]]]]]]]",
"]]]]]]]]]]]]]]]]]]]]]]]]]]]]]]]]]]]]]]]]]]]]]]]]]]",
"]]]]]]]]]]]]]]]]]]]]]]]]]]]]]]]]]]]]]]]]]]]]]]]]]]",
"]]]]]]]]]]]]]]]]]]]]]~E]]]]]]]]]]]]]]]]]]]]]]]]]]]",
"]]]]]]]]]]]]]]]]]]'_)^W]]]]]]]]]]]]]]]]]]]]]]]]]]]",
"]]]]]]]]]]]]]]]]]'(^~W]]]]]]]]]]]]]]]]]]]]]]]]]]]]",
"]]]]]]]]]]]]]]]`_/WEWRTUPJHHHDD]]]]]]]]]]]]]]]]]]]",
"]]]]]]]]]]]]]]_`~PPUQQTUPPPLKHF]]]]]]]]]]]]]]]]]]]",
"]]]]]]]]]]]]]))~YGKYERUKFGDSZASDDD]]]]]]]]]]]]]]]]",
"]]]]]]]]]]]]E(^YKHPTUPJAMNnccnZSSSGF]]]]]]]]]]]]]]",
"]]]]]]]]]]]]R!EKGJHDZBNbljfpajnBCDHG]]]]]]]]]]]]]]",
"]]]]]]]]]]]YRTPSSFVvhfffaieqeakbNAGJK]]]]]]]]]]]]]",
"]]]]]]]]]]]ITPGVBVbgr0wyuewwtidjvVGPIL]]]]]]]]]]]]",
"]]]]]]]]]]]LPFVczzgt723797678wysjvVFJKP]]]]]]]]]]]",
"]]]]]]]]]]JKGVcdpat062,11,>>,40yshcMSLUU]]]]]]]]]]",
"]]]]]]]]]]HHAbgter942>-==*=-;<48wydzVKUTT]]]]]]]]]",
"]]]]]]]]]]GDCxaw904;-*$##@$*=;>369tsnGIRE]]]]]]]]]",
"]]]]]]]]]]GFZxi0782=%@+OOO+#$*;49qetkBKEER]]]]]]]]",
"]]]]]]]]]SFDBliq63:&+ooXXXoO+#*,60yalMDPRET]]]]]]]",
"]]]]]]]]]FSCmlaw5:*$OXX....Xo+@*<7ujbNVDUER]]]]]]]",
"]]]]]]]]]DABbkaq3;*$OX..  .XXO#*:4ehbBBVFPU]]]]]]]",
"]]]]]]]]]DZBchi91;*#OX.   .XXO#*:20pxBBNVFP]]]]]]]",
"]]]]]]]]]SFVcgr91;*$OX.   .XXo+*>37qgNVVNZJ]]]]]]]",
"]]]]]]]]]DGBzae05;*%+X.....XXO#-,37qhNZZMBD]]]]]]]",
"]]]]]]]]]DFMjpee8,-%@oXXXXXXo@*:140ixZDANVD]]]]]]]",
"]]]]]]]]]FGZbfttq71=$OooX.X+@%=,59ygnADFZZD]]]]]]]",
"]]]]]]]]]DHFCxspyw6:*$@Ooo+$&=;39tslMSFFDDF]]]]]]]",
"]]]]]]]]]]GHGBzgpr7<:=%+o@%==->6wydlMAFDDSF]]]]]]]",
"]]]]]]]]]]DJKSMcgy932>===--;:<49eygbCDD]]SF]]]]]]]",
"]]]]]]]]]]]HKHABxaw663,341,,26qwetjVFFS]]]]]]]]]]]",
"]]]]]]]]]]]]JPLJBjiereqq0668qriutdvSHDA]]]]]]]]]]]",
"]]]]]]]]]]]]]UYYHmzhjfpye0epsgkjhcVFHD]]]]]]]]]]]]",
"]]]]]]]]]]JKLIIUPGACVcayetskxvnMVSFGGS]]]]]]]]]]]]",
"]]]]]]]]]]LIUILJKHHFSNlhhkvVZAAFJKKHG]]]]]]]]]]]]]",
"]]]]]]]]]]]UTUKDDFGGDZBBBVDLIPLLUIKJ]]]]]]]]]]]]]]",
"]]]]]]]]]]]]RTYLJJLPIIILKLTQQRTUT]]]]]]]]]]]]]]]]]",
"]]]]]]]]]]]]]EERYUTEQ!^!W!/(^!WT]]]]]]]]]]]]]]]]]]",
"]]]]]]]]]]]]]]]W!^(()(//((^~W]]]]]]]]]]]]]]]]]]]]]",
"]]]]]]]]]]]]]]]]]()___/]]]]]]]]]]]]]]]]]]]]]]]]]]]",
"]]]]]]]]]]]]]]]]]]]]]]]]]]]]]]]]]]]]]]]]]]]]]]]]]]",
"]]]]]]]]]]]]]]]]]]]]]]]]]]]]]]]]]]]]]]]]]]]]]]]]]]",
"]]]]]]]]]]]]]]]]]]]]]]]]]]]]]]]]]]]]]]]]]]]]]]]]]]",
"]]]]]]]]]]]]]]]]]]]]]]]]]]]]]]]]]]]]]]]]]]]]]]]]]]",
"]]]]]]]]]]]]]]]]]]]]]]]]]]]]]]]]]]]]]]]]]]]]]]]]]]",
"]]]]]]]]]]]]]]]]]]]]]]]]]]]]]]]]]]]]]]]]]]]]]]]]]]",
"]]]]]]]]]]]]]]]]]]]]]]]]]]]]]]]]]]]]]]]]]]]]]]]]]]",
"]]]]]]]]]]]]]]]]]]]]]]]]]]]]]]]]]]]]]]]]]]]]]]]]]]"
};
