/* XPM */
static char *result[] = {
/* columns rows colors chars-per-pixel */
"50 50 57 1 ",
"  c #6F0000",
". c #740000",
"X c #7A0000",
"o c #7B0000",
"O c #7E0000",
"+ c #7F0000",
"@ c #800000",
"# c #810000",
"$ c #830000",
"% c #860000",
"& c #870000",
"* c #880000",
"= c #890000",
"- c #8A0000",
"; c #8B0000",
": c #8C0000",
"> c #8D0000",
", c #8E0000",
"< c #8F0000",
"1 c #900000",
"2 c #910000",
"3 c #920000",
"4 c #930000",
"5 c #940000",
"6 c #950000",
"7 c #960000",
"8 c #970000",
"9 c #980000",
"0 c #990000",
"q c #9A0000",
"w c #9B0000",
"e c #9C0000",
"r c #9D0000",
"t c #9E0000",
"y c #9F0000",
"u c #A00000",
"i c #A10000",
"p c #A20000",
"a c #A30000",
"s c #A40000",
"d c #A50000",
"f c #A60000",
"g c #A70000",
"h c #A80000",
"j c #A90000",
"k c #AA0000",
"l c #AB0000",
"z c #AC0000",
"x c #AD0000",
"c c #AE0000",
"v c #AF0000",
"b c #B00000",
"n c #B10000",
"m c #B20000",
"M c #B30000",
"N c #B40000",
"B c None",
/* pixels */
">rjhfdffffffffffffffffffffffffffffffffffffffdfghr,",
",rjhfdfffffffffffffffffddddddddddddddddddddfddghe,",
"<tjhfdfffffffffffffffffddddddddddddddddddddfddghr>",
"<rjhfdffffffffffffffffghggggggggggggggggggggfgjkt<",
",rjhfdffffffffffffffdfjxvvcvvvvvvvvvvvvvvvvvvvnmf8",
"<rjhfdffffffffffffffgfsdgghhhhhhhjhjjjjjjhhjhjklu2",
"1rjhfdfffffffffffffglfq5446555555666888776797900,#",
"1tkhfdffffffffffffdgbg- BBBBBBBBBBBBBBBBBBBBBBBBBB",
"1tkhfdfffffffffffffhMh*BBBBBBBBBBBBBBBBBBBBBBBBBBB",
"1tkhfdfffffffffffffhmk<BBBBBBBBBBBBBBBBBBBBBBBBBBB",
"1tkhfdffffffffffffdhmk<BBBBBBBBBBBBBBBBBBBBBBBBBBB",
"<ykhfdffffffffffffdgnk1BBBBBBBBBBBBBBBBBBBBBBBBBBB",
">ylhfdffffffffffffdhnk2BBBBBBBBBBBBBBBBBBBBBBBBBBB",
">yzjfdfffffffffffffhnk2BBBBBBBBBBBBBBBBBBBBBBBBBBB",
">yljfdfffffffffffffhnl2BBBBBBBBBBBBBBBBBBBBBBBBBBB",
",yljfdffffffffffffdgnl3BBBBBBBBBBBBBBBBBBBBBBBBBBB",
",yzjfdffffffffffffdfnz4BBBBBBBBBBBBBBBBBBBBBBBBBBB",
",yzjfdffffffffffffdgnz4BBBBBBBBBBBBBBBBBBBBBBBBBBB",
",yzjfdffffffffffffdgnk<BBBBBBBBBBBBBBBBBBBBBBBBBBB",
",yzjfdffffffffffffdgch3oBBBBBBBBBBBBBBBBBBBBBBBBBB",
",yzjfdffffffffffffffhdr9788777777777777777776689,O",
"<yzhfdfffffffffffffffdddfggfffffffffffffffffddgjr>",
"<yzhfdffffffffffffffffgjkkkjjjjjjjjjkkkjjjkkjjlxi3",
",uzjfdfffffffffffffffffggggggfffffffggggfgggfgjly2",
">uxjfdffffffffffffffffffddddddddddddddfdddfdsfhkt,",
":uxjfdfffffffffffffffffdddddddddddddddddddddsdhjr>",
":uxjfdffffffffffffffffffffffffffffffffffffffdfhjr>",
",uxjfdffffffffffffffffffffffffffffffffffffffdfhhe>",
",uxjfdffffffffffffffffddddffffffffffddddddddsdggw:",
"<ixjfdfffffffffffffffddfghjjjjjjhjjhggghggggggjkr>",
"<ixjfdffffffffffffffddhcmMMMMMMMMMMmnnnnnnnnbnMNf4",
"<ixjfdfffffffffffffdfdadfhhhhjjjkkkkjjkkkkllklxcu<",
"<uxjfdffffffffffffddhfr<**::;::,<<<<<<<112332365=X",
",uzjfdffffffffffffdflzr*BBBBBBBBBBBBBBBBBBBBBBBBBB",
">yzjfdffffffffffffdfzvyBBBBBBBBBBBBBBBBBBBBBBBBBBB",
">yzjfdfffffffffffffgzbuBBBBBBBBBBBBBBBBBBBBBBBBBBB",
">yzjfdfffffffffffffglvu+BBBBBBBBBBBBBBBBBBBBBBBBBB",
",yzjfdfffffffffffffglvu#BBBBBBBBBBBBBBBBBBBBBBBBBB",
",yzjfdfffffffffffffglvu@BBBBBBBBBBBBBBBBBBBBBBBBBB",
">yzjfdfffffffffffffflvuBBBBBBBBBBBBBBBBBBBBBBBBBBB",
";txjfdffffffffffffdfzbiBBBBBBBBBBBBBBBBBBBBBBBBBBB",
";tzjfdffffffffffffdfkzr$BBBBBBBBBBBBBBBBBBBBBBBBBB",
"-tzjfdffffffffffffffhgr>%&;==----------------;;:#.",
"-tzjfdffffffffffffffgdaaadffdffdddsdddsffdddsdghq$",
"=tzjfdfffffffffffffffdglcvvvvvvvvvvvvvvvvvvvcvnMp:",
"-tzjfdfffffffffffffffdgkzxxxxxxxxxxxxxxxxxxxzzvbp1",
";tzjfdfffffffffffffffdddddddddddddddddddddddsdgjr,",
";tzkfdfffffffffffffffffffddffffffffddfffffffdfhkt,",
"-uxkfdffffffffffffffffffffffffffffffffffffffdfjly>",
"=tzjfdffffffffffffffffffffffffffffffffffffffdfjly>"
};
