/* XPM */
static char *e46e549005404119a1c799d26c3cd4e5YvLsMfZKiEZeJKRu[] = {
/* columns rows colors chars-per-pixel */
"35 35 46 1 ",
"  c None",
". c #6F0000",
"X c #700000",
"o c #780000",
"O c #7E0000",
"+ c #7F0000",
"@ c #800000",
"# c #810000",
"$ c #840000",
"% c #860000",
"& c #870000",
"* c #8C0000",
"= c #8D0000",
"- c #8E0000",
"; c #8F0000",
": c #900000",
"> c #910000",
", c #920000",
"< c #930000",
"1 c #940000",
"2 c #950000",
"3 c #960000",
"4 c #970000",
"5 c #980000",
"6 c #990000",
"7 c #9A0000",
"8 c #9B0000",
"9 c #9E0000",
"0 c #A10000",
"q c #A20000",
"w c #A40000",
"e c #A50000",
"r c #A60000",
"t c #A70000",
"y c #A80000",
"u c #A90000",
"i c #AA0000",
"p c #AB0000",
"a c #AC0000",
"s c #AD0000",
"d c #AE0000",
"f c #AF0000",
"g c #B00000",
"h c #B10000",
"j c #B20000",
"k c #B30000",
/* pixels */
";tyttqttttqttqtttttqttqtttttqttttt:",
":ttqttttttttttqtqtqttttqtqtttqtqtt;",
":tyttqqttqqtttttyyttyytytttyyyttyy:",
":tyttttttttttqttaaaaaaaaaaaaaaayja5",
":ttqtttttttttty9333333355555555555&",
":yyttqqttqqtttj;                   ",
":yytttttttttttj3                   ",
":ytqtqttttqttqj:                   ",
":yyttqttqttqtta3                   ",
":aytttttttttttj3                   ",
":yytqttqtttttqj3                   ",
":yttttttqttqttj3                   ",
":yytttttttqtttj5                   ",
":ytttqtqttttqta3X                  ",
":ayttqttqttttttq959595595559595595&",
":aytttttttqtttqtyyyyyyyyyyyyyyyyay:",
":ayqqttqtttttqttytttttttttttttttyy:",
":yyttttttqtttttqtttqqtqttqqttqtqyt:",
";yyttttttqtqttttttttqtttttttqttqtt;",
":attqttqtttttqttqttqttttqttqtttttt;",
":ayttqttttttttqqttttttyyttttttttyt;",
":ayttttttqqtttttajjjjjjjjjajajjajj3",
":yytqttqtttttqtq:;::::3::3:3333353@",
":yyttttttqttttyq&                  ",
":ayttqttttqttqat                   ",
":yytttttttttttyt                   ",
":ayttqqttqqtttyt                   ",
":yyttttttttttqyt                   ",
";ayqttttttttttyt                   ",
";yyttqqttqqtttyq&o@++++++++++++@@+.",
";yyttttttttttttqqttttttttttttytqyy*",
";yyqtqttttqttqttajaaajajaaajaajaja:",
"*yytttttttttqttqqtqtqttqtqtqqttqty:",
";yyttqqttqttttttttttttqttttttttqyy;",
";yyttttttttqtttqqtttqtttqttttqttyy;"
};
