/* XPM */
static char *result[] = {
/* columns rows colors chars-per-pixel */
"80 80 33 1 ",
"  c #A06C3F",
". c #9D6B41",
"X c #A46E42",
"o c #A67043",
"O c #AB7345",
"+ c #AE7548",
"@ c #B17646",
"# c #B37A47",
"$ c #B47749",
"% c #B67949",
"& c #BB7C4A",
"* c #C07F4C",
"= c #B78249",
"- c #BE814C",
"; c #C3844E",
": c #C8854F",
"> c #C68B4E",
", c #C98C4F",
"< c #C8914F",
"1 c #C58550",
"2 c #C98650",
"3 c #C78950",
"4 c #CC8B52",
"5 c #D28D54",
"6 c #CD9152",
"7 c #D29454",
"8 c #D99457",
"9 c #D59A55",
"0 c #D99D56",
"q c #DB9C58",
"w c #DAA056",
"e c #DCA158",
"r c None",
/* pixels */
"rrrrrrrrrrrrrrrrrrrrrrrrrrrrrrrrrrrrrrrrrrrrrrrrrrrrrrrrrrrrrrrrrrrrrrrrrrrrrrrr",
"rrrrrrrrrrrrrrrrrrrrrrrrrrrrrrrrrrrrrrrrrrrrrrrrrrrrrrrrrrrrrrrrrrrrrrrrrrrrrrrr",
"rrrrrrrrrrrrrrrrrrrrrrrrrrrrrrrrrrrrrrrrrrrrrrrrrrrrrrrrrrrrrrrrrrrrrrrrrrrrrrrr",
"rrrrrrrrrrrrrrrrrrrrrrrrrrrrrrrrrrrrrrrrrrrrrrrrrrrrrrrrrrrrrrrrrrrrrrrrrrrrrrrr",
"rrrrrrrrrrrrrrrrrrrrrrrrrrrrrrrrrrrrrrrrrrrrrrrrrrrrrrrrrrrrrrrrrrrrrrrrrrrrrrrr",
"rrrrrrrrrrrrrrrrrrrrrrrrrrrrrrrrrrrrrrrrrrrrrrrrrrrrrrrrrrrrrrrrrrrrrrrrrrrrrrrr",
"rrrrrrrrrrrrrrrrrrrrrrrrrrrrrrrrrrrrrrrrrrrrrrrrrrrrrrrrrrrrrrrrrrrrrrrrrrrrrrrr",
"rrrrrrrrrrrrrrrrrrrrrrrrrrrrrrrrrrrrrrrrrrrrrrrrrrrrrrrrrrrrrrrrrrrrrrrrrrrrrrrr",
"rrrrrrrrrr54*rrrrrrrrrrrrrrrr;:5rrrrrrrrrrrrrrrr45;rrrrrrrrrrrrrrrr:45rrrrrrrrrr",
"rrrrrrrrr;482*rrrrrrrrrrrrrr;:8:1rrrrrrrrrrrrrr;481;rrrrrrrrrrrrrr;1841rrrrrrrrr",
"rrrrrrrr-;:554rrrrrrrrrrrrr:455;;&rrrrrrrrrrrr**;581:rrrrrrrrrrrrr4551;&rrrrrrrr",
"rrrrrrrr;4;-851rrrrrrrrrrrr*48;;5;rrrrrrrrrrrr;4**54;rrrrrrrrrrrr;48*;5*rrrrrrrr",
"rrrrrrr115;;2:;&rrrrrrrrrr&;;:;;54rrrrrrrrrrrr45;*1:*&rrrrrrrrrr&;:1;;531rrrrrrr",
"rrrrrrr;41;-*;;1rrrrrrrrrr;::;&;54:rrrrrrrrrr;45;**2:*rrrrrrrrrr*;:;&;43:rrrrrrr",
"rrrrrr&*11;&*;41rrrrrrrrrr:3:&-;4:;&rrrrrrrr&;14;-&14:rrrrrrrrrr:4;;;;1:;&rrrrrr",
"rrrrrr;;:;;*&;51;rrrrrrrr;44;*&;*:**rrrrrrrr-;:;;*&:44;rrrrrrrr1:5;*&&;:;-rrrrrr",
"rrrrrr;11-&&-;54;rrrrrrrr:44;&&&*2;*rrrrrrrr-;:;&&&;51;rrrrrrrr;45;&**;;,*rrrrrr",
"rrrrrr;53--;-;41;rrrrrrr&*1:;;;;**4*rrrrrrrr;1:&;;;;1:;*rrrrrrr;44;&-;&;5;rrrrrr",
"rrrrr*45--33-;::;;rrrrrr;;;;;>,>*;14rrrrrrrr14;*>,;;;;;;rrrrrr-111;->,;;51;rrrrr",
"rrrrr*441166,>:;;&rrrrrr&;*;:,76;;44:rrrrrr*44;:67<>;**&rrrrrr&;;3346<;;54;rrrrr",
"rrrrr;443<9074;;;*rrrrrr&:;;<90931441rrrrrr:4221909,;;;;rrrrrr;*;;46093341;rrrrr",
"rrrrr:*4460e06:;;-rrrrrr;:*:<9w06444;rrrrrr;24440w06;;:;rrrrrr&;1160ww645:;rrrrr",
"rrrrr*25660w0731;&rrrrrr&4;,9ww0754*1rrrrrr144470ww9>;,-rrrrrr-11370w0664*;rrrrr",
"rrrrr:*569000943:&rrrrrr&,:<9www75521rrrrrr;347700w9,::&rrrrrr&;339e00965:;rrrrr",
"rrrrr;:59900w963:&rrrrrr&4379ww99961:rrrrrr;15990ww973,&rrrrrr&;469000997:;rrrrr",
"rrrr%*:59900w964;&rrrrrr&:,6www9994:;&rrrr&-157990w07,:&rrrrrr&;470w00975:-&rrrr",
"rrXo@**69000w06,;%OXXXo@%:,79www074;&@oXXo@&;4900ww06,:%$oXXoO$;369www094;&+oXrr",
"Oo O@&;,9w00w093;&OoXXO@%;,79www094-&@oXXo@&;,9000w07,;%@ooXoO$;<6ww00w94;&$oooo",
"Ooo@$&;69099ww9,-%@oOoO@&;6990w9096;&@OoOO%&;<9w900094;%$OoOO@$;,90w9009<;-@$ooO",
"@OOO@&;609<<6996;%@OoOO@%;679766996;&@OooO@&;<9w<<7994;%@OOoO@$;6996<<906;%#OOO@",
"oXXO@&;607==<99<;$OoXXoO$;79<>#-904-&+oooo@%-<99==>697;%@ XXoO$;696<#=70,;&@oXoo",
"oooo@%*607-=<69<;$OoooO@%;699<==906-%+ooooO%;,ww==<795;%@ooooO$;<99<=-90<;&@oXoo",
"OOO@@&;49w669994;%%OO+O%%169996699,;&%+++o$&-490669096;&$OOO##%;46w966996;=%@OOO",
"oOO@%-;69ww9w996-%#OOO+%&-479ee9w9<;%%# ++$&;69000w094-&#OOOO#%-690www09<:&%@OOo",
"oooo@-:69ww00094;%OOooO+%1<9wewww9<-&@+ o++&-49w0000761&@OoooO%16600www94:&@ooXX",
"rrroO-170ww0w9761%Ooo.o$&3<9w99ww97:&@o .o+&>79000w9961&OO .o$$;490w9w007>-@orrr",
"rrrr%14q090000971%rrrrrr&469ww990q84;rrrrrr*290009ww664&rrrrrr&169qw000094;$rrrr",
"rrrrr1480009w096:&rrrrrr&479ww9w0q85;rrrrrr1480e00www64&rrrrrr&1790q090005;rrrrr",
"rrrrr1480090w086:&rrrrrr&4779w000q94:rrrrrr158q000w9964&rrrrrr&:790q900q85;rrrrr",
"rrrrr14900w90097:&rrrrrr&479ww000q83;rrrrrr148q000ww964-rrrrrr&:6900009q84;rrrrr",
"rrrrr;40q9000097:%rrrrrr&5790e000q84;rrrrrr148q0w9e9975&rrrrrr&:59000000q5;rrrrr",
"rrrrr:580009w095:%rrrrrr&4780ew00q74;rrrrrr;48q0wwew955&rrrrrr%:7900000084;rrrrr",
"rrrrr;5809090097:&rrrrrr&4790w90qq841rrrrrr;49q09ww9954&rrrrrr&1790q9909q4;rrrrr",
"rrrrr;4q0000w097:%rrrrrr&479www00q941rrrrrr;48q0e9ee955&rrrrrr&169ww000084;rrrrr",
"rrrrr;4qq0090097:%rrrrrr&489ww9w0q941rrrrrr;49q009ew774&rrrrrr&17700090qq41rrrrr",
"rrrrr;58q090q997:&rrrrrr&579www00q841rrrrrr;48q00we9974&rrrrrr&1790w900985;rrrrr",
"rrrrr;4q0909w095:&rrrrrr&4699w000q841rrrrrr;48q09wew974&rrrrrr&1770w000q85;rrrrr",
"rrrrr1580000w097:$rrrrrr&469ww0w0q741rrrrrr;48q0www9775&rrrrrr&:7900900qq4;rrrrr",
"rrrrr;4qq0090096:%rrrrrr&479www0qq841rrrrrr149q0w9ew973&rrrrrr&1799w0000851rrrrr",
"rrrrr1580000w097:&rrrrrr&4799w9wq984;rrrrrr;58q09www974&rrrrrr&179qq900094;rrrrr",
"rrrrr;480009w097:&rrrrrr&479ww000q841rrrrrr148q0www9955&rrrrrr&1790w09wq851rrrrr",
"rrrrr159q009wq77:&rrrrrr&4790w000q94:rrrrrr148q099ww974&rrrrrr&1690w9000q4;rrrrr",
"rrrrr;4q09090096;&rrrrrr&57900000084;rrrrrr;57q09www964&rrrrrr&279qq990084;rrrrr",
"rrrr%;4700w0qw77:&rrrrr%&277ww00w072-#rrrr&&47q0e9e9962&&rrrrr&16900w00094-%rrrr",
"rrXo$&360ww0w094;%@ooX @&1490ww0q061&@o XoO&;<9weeee961&+oXXo+$1670wwww971&@oorr",
"ooO@$%149w09e996*$@Ooo@%%1690000w94-%@+ooo@&;,9w99e99<-&++ooO$$*660w00w94;%%@OXo",
"+ O+@%-69099ww6<;$+ @  %%;699w90096-&+oooo@&;,9w900w9<;%+ooOo@$*,90w99w94-&#$ooo",
"++ O@&;499<36996;% OOO@ %-6996<<096-%$oXoo@%;<99<<<995;%$oooOO$;499<><906;&@ooOO",
" + oO-;606==>996;@OoXoo+%;696>==9w<-%+oXoo@%;<09-=><95;%@oXXXO$;779,#-9w6-&OoXoo",
"o oo@&;609-=<696;%@Ooo++%;6w6>=-996-&+Oooo@&-,09-=>797;%OOooo@$;<97<==6w6;&$oooo",
"++@@%&><9996999<-%%@@@@%&;69997909,;&%OO+@#%;<90969w97;%#@@+$$%;,9996799<;&%%O+O",
" OO@%&:,900ww093;%@OOOO@%;690wwww9<;&##O+@@&;<9wwwww9<;%#++@@@$;,70wwww96:-@@@Oo",
"ro O@&;6www0wq96;%OOooO@%;69ww00w06;&@ooo@@%;69wwwww96;&@ oo @$;69wwwww06:&@ooor",
"rrrO$->60w0www76;&@o.oo$%3490w00006:&%orr @&:79ww9w976,&&   O@%;<9www9w97,-@Xrrr",
"rrrr&;390090w976:&rrrrrr&44700099051;rrrrrr;25899q00663&rrrrrr&;570009w081*&rrrr",
"rrrrr;4566667743:&rrrrrr&4,4697665541rrrrrr;457676964,4&rrrrrr&144696666541rrrrr",
"rrrrr*44:;>:;;;>1&rrrrrr;11*;;;;;4421rrrrrr;441;;>>1;24&rrrrrr&;:;;;;;;>54;rrrrr",
"rrrrr*22;&&&-&-;;-rrrrrr&4;*--&-&*24;rrrrrr;24;&&&&&&;1;rrrrrr;;;&-&&&&;121rrrrr",
"rrrr1121;&*&&&&*1;rrrrrr*4;&---&&;44:rrrrrr;34;*-&-&&*4*rrrrrr-:;&&&--&;:4**rrrr",
"rrrrr1451;;:2245:&rrrrrr;51:;;1;*454:rrrrrr:454*1:;:145*rrrrrr;15,:;>;;1521rrrrr",
"rrrrr24854441555:&rrrrrr&45543444584;rrrrrr148543445551;rrrrrr-15554443584;rrrrr",
"rrrrrr451;:::144;rrrrrrr&;433:11*444rrrrrrrr442*11:114;&rrrrrrr;441;:::155rrrrrr",
"rrrrrrrrrrrrrrrrrrrrrrrrrrrrrrrrrrrrrrrrrrrrrrrrrrrrrrrrrrrrrrrrrrrrrrrrrrrrrrrr",
"rrrrrrrrrrrrrrrrrrrrrrrrrrrrrrrrrrrrrrrrrrrrrrrrrrrrrrrrrrrrrrrrrrrrrrrrrrrrrrrr",
"rrrrrrrrrrrrrrrrrrrrrrrrrrrrrrrrrrrrrrrrrrrrrrrrrrrrrrrrrrrrrrrrrrrrrrrrrrrrrrrr",
"rrrrrrrrrrrrrrrrrrrrrrrrrrrrrrrrrrrrrrrrrrrrrrrrrrrrrrrrrrrrrrrrrrrrrrrrrrrrrrrr",
"rrrrrrrrrrrrrrrrrrrrrrrrrrrrrrrrrrrrrrrrrrrrrrrrrrrrrrrrrrrrrrrrrrrrrrrrrrrrrrrr",
"rrrrrrrrrrrrrrrrrrrrrrrrrrrrrrrrrrrrrrrrrrrrrrrrrrrrrrrrrrrrrrrrrrrrrrrrrrrrrrrr",
"rrrrrrrrrrrrrrrrrrrrrrrrrrrrrrrrrrrrrrrrrrrrrrrrrrrrrrrrrrrrrrrrrrrrrrrrrrrrrrrr",
"rrrrrrrrrrrrrrrrrrrrrrrrrrrrrrrrrrrrrrrrrrrrrrrrrrrrrrrrrrrrrrrrrrrrrrrrrrrrrrrr"
};
