/* XPM */
static char *dffe95d26d2a48a79bd9f7efafc6c305unsjvDqHOzrKtFBD[] = {
/* columns rows colors chars-per-pixel */
"40 40 179 2 ",
"   c None",
".  c #A26D41",
"X  c #A36E41",
"o  c #A36D42",
"O  c #A36E42",
"+  c #A46E41",
"@  c #A46F41",
"#  c #A46F42",
"$  c #A56F42",
"%  c #A56F43",
"&  c #A66F42",
"*  c #A57042",
"=  c #A57043",
"-  c #A67042",
";  c #A67043",
":  c #A77043",
">  c #A77143",
",  c #A87143",
"<  c #A97143",
"1  c #A97243",
"2  c #A87244",
"3  c #A97244",
"4  c #AA7244",
"5  c #AA7344",
"6  c #AB7344",
"7  c #AA7444",
"8  c #AB7444",
"9  c #AA7544",
"0  c #AB7644",
"q  c #AC7445",
"w  c #AD7445",
"e  c #AE7545",
"r  c #AE7546",
"t  c #AE7646",
"y  c #AD7845",
"u  c #AE7945",
"i  c #B07646",
"p  c #B17747",
"a  c #B27847",
"s  c #B37847",
"d  c #B27748",
"f  c #B47848",
"g  c #B57948",
"h  c #B57849",
"j  c #B57949",
"k  c #B67948",
"l  c #B67949",
"z  c #B67A49",
"x  c #B77A49",
"c  c #BB7C4A",
"v  c #BB7D4B",
"b  c #BC7C4A",
"n  c #BC7C4B",
"m  c #BC7D4B",
"M  c #BD7D4B",
"N  c #BC7E4B",
"B  c #BD7E4B",
"V  c #BE7E4B",
"C  c #BE7F4B",
"Z  c #BF7F4B",
"A  c #BC7D4C",
"S  c #BE7D4C",
"D  c #BD7E4C",
"F  c #BE7E4C",
"G  c #BF7F4C",
"H  c #BE804B",
"J  c #BF804B",
"K  c #BE804C",
"L  c #BF804C",
"P  c #BF814C",
"I  c #BE804D",
"U  c #BF804D",
"Y  c #BF814D",
"T  c #C0804C",
"R  c #C0814C",
"E  c #C1814C",
"W  c #C0804D",
"Q  c #C1804D",
"!  c #C0814D",
"~  c #C1814D",
"^  c #C0824D",
"/  c #C2824D",
"(  c #C3824E",
")  c #C3834E",
"_  c #C3864E",
"`  c #C5844E",
"'  c #C4854E",
"]  c #C5844F",
"[  c #C6844F",
"{  c #C6854F",
"}  c #C4864E",
"|  c #C5864E",
" . c #C5874F",
".. c #C6874F",
"X. c #C8864F",
"o. c #C5884F",
"O. c #C6884E",
"+. c #C6884F",
"@. c #C7884F",
"#. c #C7894F",
"$. c #C88A4F",
"%. c #C88650",
"&. c #CA8650",
"*. c #CA8751",
"=. c #CB8751",
"-. c #C78950",
";. c #C78A50",
":. c #C98950",
">. c #CB8851",
",. c #CB8951",
"<. c #C88A50",
"1. c #C98A50",
"2. c #CA8B50",
"3. c #CC8851",
"4. c #CC8951",
"5. c #CD8951",
"6. c #CD8A52",
"7. c #CE8A52",
"8. c #CF8A52",
"9. c #CF8B52",
"0. c #CA8C50",
"q. c #CA8D50",
"w. c #CA8C51",
"e. c #CB8C51",
"r. c #CC8E51",
"t. c #CC8F51",
"y. c #CF8C53",
"u. c #CF8D53",
"i. c #D08B53",
"p. c #D18F53",
"a. c #D38D54",
"s. c #C99150",
"d. c #CD9152",
"f. c #CE9252",
"g. c #CF9352",
"h. c #CF9353",
"j. c #CD9451",
"k. c #CD9452",
"l. c #CE9452",
"z. c #CF9552",
"x. c #D29053",
"c. c #D09453",
"v. c #D19453",
"b. c #D09553",
"n. c #D19553",
"m. c #D19753",
"M. c #D29653",
"N. c #D29753",
"B. c #D29054",
"V. c #D39054",
"C. c #D39154",
"Z. c #D29554",
"A. c #D29654",
"S. c #D39654",
"D. c #D39754",
"F. c #D49954",
"G. c #D59855",
"H. c #D49955",
"J. c #D59A55",
"K. c #D59B55",
"L. c #D69A55",
"P. c #D69B55",
"I. c #D69C55",
"U. c #D79C55",
"Y. c #D79D55",
"T. c #D79C56",
"R. c #D79D56",
"E. c #D89D55",
"W. c #D89D56",
"Q. c #D89E56",
"!. c #D99E56",
"~. c #D99F56",
"^. c #D99E57",
"/. c #D99F57",
"(. c #DA9F56",
"). c #DA9E57",
"_. c #DA9F57",
"`. c #DBA057",
"'. c #DBA157",
/* pixels */
"                                                                                ",
"                                                                                ",
"                                                                                ",
"                                                                                ",
"          a.G               R i.                9.G               P a.          ",
"        P P 9.            P 9.W P             C W 9.P             y.G P         ",
"      W 9.P ] P           P W W 9.            9.P W P           P { G 9.P       ",
"      G ] G P %.          >.H W ] T         P X.W W >.          { P G ] P       ",
"      W P C C 9.C       T %.W C P P         W W C C 9.P       P 9.H C G W       ",
"      9.C d._ ] P       T ] O.d.C 9.        9.C d.O.W W       W { _ s.G 9.      ",
"    P >.-.`.c.W W       R C D.'.] 9.W     W %.] `.c.W P       W T B.`.-.>.P     ",
"    W %.D.Q.Q.] H       C ] Q.Q.d.%.W     W 9.j.Q.Q.O.C       H _ R.Q.D.%.W     ",
"    H 9.F.R._.e.C       G e.Q.Q.G.9.H     P 9.G.Q.`.e.G       C e.Q.R.G.9.H     ",
"= # k ] Q.Q.Q.d.v , # 8 C d.`.Q.R.] g O O k _ G.Q.Q.d.x < # , v d.`.Q.Q.] k # = ",
", , x $.Q.N.R.c.C q < q C D.G.N.Q.O.g , < k $.Q.c.Q.D.G q < q C j.R.m.`.O.k , , ",
"= # g $.Q.q j.D.x < O < x G.s.u `.O.s = # s ] (.u s.D.G < # < x D.j.8 `.O.k O = ",
"= q v O.Q.G.Q.h.v p 8 p C Z.Q.T.R.O.k q r h -.R.R.R.D.C q q p G h.R.G.Q.>.k p = ",
"  O k >.Q.Q.Q.h.C < O 8 T c.Q.Q.Q.>.f O O h >.R.Q.Q.d.G < # < x D.Q.Q.Q.e.k O   ",
"    A B.`.Q.`.D.C       n D.Q.T.R.B.G     S B.Q.R.Q.D.G       G B.`.Q.`.B.A     ",
"    G V.Q.T.`.B.C       S D.Q.Q._.a.G     A B._.Q.Q.D.G       G D._.T.Q.B.H     ",
"    C B.Q.T.).D.n       G D.Q.Q._.B.A     G B.Q.Q.Q.D.n       G D._.G.Q.V.x     ",
"    C V.Q.T.).D.C       G B.Q.Q.Q.B.G     A B._.T.R.D.G       C B._.Q.Q.V.C     ",
"    x V.Q.T.Q.D.C       G D.(.Q._.B.A     A a.Q.Q.Q.D.G       C D._.T.Q.V.G     ",
"    G V.Q.R._.B.C       G D.(.Q.Q.a.A     G B.Q.Q.(.D.G       n D.Q.T.Q.B.S     ",
"    C B.Q.T._.D.C       G D.Q.Q.R.a.G     G B.Q.T.(.D.G       C D._.G.Q.B.G     ",
"    G i.Q.Q.`.B.C       A D.`.Q.`.a.C     G B.Q.Q.(.B.G       C D._.R._.a.G     ",
"    C c.Q.G._.D.G       G D.Q.G.R.B.n     C i.`.T.Q.D.S       G D._.R.R.B.A     ",
"= # h >.`._._.h.C < # < C d._._.R.O.p # # p O.Q.).).D.C < # < x d.`.R.`.-.f * = ",
"8 = k O.Q.j.Q.c.C < = q C D.R.j.Q.O.f ; = g O.Q.c.G.D.G q < < G B.R.j.`.-.k < < ",
"= * f O.Q.q j.D.v , # , v G.s.u `.-.f O = s O.`.u s.D.x < # < v D.j.8 `.O.k # # ",
"# s k e.Q.T.Q.c.v p q f C c.R.R.R.O.k q q z ] Q.Q.Q.c.C f q d v j.Q.R.`.-.k d = ",
"  O k 9.Q.Q.`.c.A < O < C D.`.R.`.>.k = = z >._.Q.`.D.C 8 O < v j.`.R.`.9.k O   ",
"    C i.G.F.G.d.C       G e.R.F.D.y.G     G 9.F.F.G.s.G       G e.G.G.F.a.G     ",
"    P >.G P P W P       G G P P P %.P     P >.C G P G G       P W P P P %.P     ",
"    P >.P G G P G       P G G P G 9.P     P 9.G G P P W       P P W P P >.W     ",
"      i.{ %.{ 9.P       P 9.{ { { 9.        9.] { { 9.W       P 9.{ { { i.      ",
"                                                                                ",
"                                                                                ",
"                                                                                ",
"                                                                                "
};
