/* XPM */
static char *_95afa4bc9414c1d943aef9b9c817f37x3mZCRFAIRAd2u5c[] = {
/* columns rows colors chars-per-pixel */
"38 38 178 2 ",
"   c None",
".  c #666E76",
"X  c #71777D",
"o  c #AF814E",
"O  c #AF845C",
"+  c #B3865D",
"@  c #AF8660",
"#  c #AB8A6F",
"$  c #B78B65",
"%  c #B68D68",
"&  c #BC8E61",
"*  c #BE926A",
"=  c #BC977E",
"-  c #C2946B",
";  c #C49771",
":  c #C99D77",
">  c #CB9E7B",
",  c #C39876",
"<  c #CCA37D",
"1  c #CDA274",
"2  c #D2A37E",
"3  c #D7A67B",
"4  c #328DDC",
"5  c #3C88DC",
"6  c #3B96DE",
"7  c #3D91D4",
"8  c #0D8DEA",
"9  c #198FEA",
"0  c #168DE8",
"q  c #0091ED",
"w  c #1792EF",
"e  c #1C91ED",
"r  c #0096F4",
"t  c #0F90F0",
"y  c #0B94F9",
"u  c #1597F7",
"i  c #1B92F1",
"p  c #318FEF",
"a  c #2F96E8",
"s  c #3F98E1",
"d  c #3893EE",
"f  c #2E92F5",
"g  c #3594F2",
"h  c #3C96F6",
"j  c #3C98F7",
"k  c #5988CB",
"l  c #5790CE",
"z  c #4E8FD2",
"x  c #5C8DD4",
"c  c #6793CA",
"v  c #7792C2",
"b  c #78A1DE",
"n  c #409AE2",
"m  c #4696EE",
"M  c #4C95EB",
"N  c #449BEC",
"B  c #4C99EE",
"V  c #4296E1",
"C  c #5596E7",
"Z  c #5397EC",
"A  c #4596F5",
"S  c #4B97F3",
"D  c #4598F6",
"F  c #4D99F4",
"G  c #4599F9",
"H  c #4E9DF9",
"J  c #5097F2",
"K  c #539BF5",
"L  c #519EFB",
"P  c #6299E6",
"I  c #769FE2",
"U  c #789EE0",
"Y  c #54A4EB",
"T  c #4EA2FF",
"R  c #46A0F3",
"E  c #5DA2F7",
"W  c #52A2FD",
"Q  c #5AA4FF",
"!  c #55A8FF",
"~  c #5FA8FF",
"^  c #58B0F9",
"/  c #62A5F4",
"(  c #72ADF4",
")  c #65B3FE",
"_  c #6DBCFE",
"`  c #76B3F5",
"'  c #7CBAF7",
"]  c #75BCFC",
"[  c #7DBEFA",
"{  c #7BB6F6",
"}  c #79C5FF",
"|  c #838284",
" . c #959CB7",
".. c #BCA5A7",
"X. c #A8A1B1",
"o. c #ACAAB4",
"O. c #A1A7BE",
"+. c #AEADBE",
"@. c #BCB7BB",
"#. c #C7A280",
"$. c #CAA381",
"%. c #DAAD8B",
"&. c #D7AA85",
"*. c #DBB18D",
"=. c #D5AF9B",
"-. c #C7B09F",
";. c #DFB59A",
":. c #DCBB9C",
">. c #EAB485",
",. c #E3B38D",
"<. c #E9B68B",
"1. c #F4BC8B",
"2. c #E5B592",
"3. c #E9B792",
"4. c #E5B897",
"5. c #EBBB96",
"6. c #ECBD9A",
"7. c #F0BD97",
"8. c #F1BF9A",
"9. c #CBB9AE",
"0. c #DAB6A5",
"q. c #D4B5AD",
"w. c #CFBAB5",
"e. c #EFC09D",
"r. c #F4C29C",
"t. c #F8C79F",
"y. c #FACB9F",
"u. c #E1C3AA",
"i. c #E8C8A9",
"p. c #EBC4A3",
"a. c #F3CAA5",
"s. c #FACCA4",
"d. c #F6CBA7",
"f. c #FED4A5",
"g. c #F7D1AA",
"h. c #FDD3AD",
"j. c #FED9AE",
"k. c #FFD6B1",
"l. c #FEDAB4",
"z. c #FEDDB8",
"x. c #FFE6BE",
"c. c #829BC3",
"v. c #8BA0CA",
"b. c #98A8C7",
"n. c #8DA7D8",
"m. c #ACAEC3",
"M. c #ADB2C3",
"N. c #BCB8CA",
"B. c #A6B1DF",
"V. c #A7B7D8",
"C. c #B8B8D1",
"Z. c #8DBBEF",
"A. c #90BAEE",
"S. c #9BBCE9",
"D. c #9EB9E4",
"F. c #84BBF4",
"G. c #A5B1E1",
"H. c #A1BDE6",
"J. c #CABFCF",
"K. c #C8B9C2",
"L. c #CABED0",
"P. c #B8C3DC",
"I. c #85C1FC",
"U. c #8BC7FF",
"Y. c #8AC1F6",
"T. c #C5C8CE",
"R. c #D7D3C7",
"E. c #DAD7CD",
"W. c #D4D4D4",
"Q. c #D8D7D4",
"!. c #DCD9D1",
"~. c #F4DECB",
"^. c #EDDFD4",
"/. c #EBE5DF",
"(. c #F1E6DC",
"). c #E8E9EC",
"_. c #F0EFEB",
"`. c #FAF8F4",
/* pixels */
"                              6 n B D g h K J W                             ",
"                            s R L G Z U P h W W W                           ",
"                          6 R K H 5 M._.T.k G F H W                         ",
"                        s R B K g V.R.).!.T.M D K H W                       ",
"                        s N J H p P.E.).!.W.C D J F W                       ",
"                        s S J J G x @.`.W.v D F F F W F                     ",
"                        n m A A K m b V.n.N K S A F W H                     ",
"                        6 m E ( ` ] _ ! ) ] ` ( / J T F                     ",
"                      7 Y ` [ ] ] F.S.H.S.Z.[ ] F.] ) K                     ",
"                        I.F.] Z.N.q.;.2.;.0.K.D.] [ U.`                     ",
"                      X.Z.} V.0.>.>.,.<.,.>.>.4.N.[ } b.                    ",
"                      3  .C.4.>.4.4.2.2.2.4.5.<.>.K.b.#.1.                  ",
"                    r.3 o >.<.> ; : ,.2.2.2 ; , ,.f.1 + t.                  ",
"                    8.< + 2.2.: % : ,.2.4.> $ $.a.z.2 $ r.3.                ",
"                    s.&.+ *.5.%.# %.5.,.2.5.= :.l.j.$.- t.                  ",
"                      * * 2.5.,.&.*.2.2.a.h.p.a.h.k.*.+                     ",
"                        2 5.2.2.2.,.,.3.d.h.k.k.h.k.a.+                     ",
"                        7.5.,.2.2.a.l.k.k.k.h.h.h.k.z.                      ",
"                        8.8.,.6.s.~.).(.).~.h.h.h.k.l.                      ",
"                          s.s.f.k.u.| . X -.k.h.h.x.l.                      ",
"                          l.~.j.h.s.%.# #.a.j.k.x.z.                        ",
"                            l.x.k.k.l.l.l.l.h.l.z.                          ",
"                                j.h.k.k.k.h.l.s.                            ",
"                              ..5.5.6.r.e.6.r.=.                            ",
"                          Q y m.s.6.5.3.5.6.y.w.a T                         ",
"                        H ) u c.h.k.k.h.h.k.j.@.q Q W H                     ",
"                      W H J A 4 9.j.j.k.k.j.u.l g K T ! K                   ",
"                    W W A F K g l 9.g.g.g.u. .e K F S H W                   ",
"                  L W F S H F K g 4 c.O. .z e H F F S K W W                 ",
"                  W W F F S K S K A i 8 w j K F F F S S T W                 ",
"                  H L H F F F F S K K K K K F F S F F S H W                 ",
"                  L W B F S F F S F F F F F F S K F S S H L                 ",
"                  Q E J L F F S F F F F S F F F F S K K W W                 ",
"                  9 w 8 p F F F F F F F F F F F F K d 0 w e                 ",
"                  +.M.o.n.D F K F S F F F F F F K h b o.+.+.                ",
"                  l.l.f.J.j S K F K S F F F S F K y B.h.j.z.                ",
"                  l.z.f.J.h G K F F F S F S F F K y B.h.j.z.                ",
"                  l.z.f.J.g F K F F R H H F H F K y B.h.j.z.                "
};
