/* XPM */
static char *result[] = {
/* columns rows colors chars-per-pixel */
"50 50 228 2 ",
"   c #76732A",
".  c #2D3871",
"X  c #243159",
"o  c #433A78",
"O  c #1B567B",
"+  c #525052",
"@  c #67655C",
"#  c #747253",
"$  c #59596B",
"%  c #5B5978",
"&  c #4B4877",
"*  c #635F7D",
"=  c #635F65",
"-  c #686868",
";  c #74746B",
":  c #6D747A",
">  c #787679",
",  c #6E6771",
"<  c #817E4D",
"1  c #827B7E",
"2  c #908D37",
"3  c #9B9849",
"4  c #979459",
"5  c #8F8C4D",
"6  c #A09D5D",
"7  c #A7A34B",
"8  c #ACA859",
"9  c #B9B557",
"0  c #B7B352",
"q  c #858268",
"w  c #989566",
"e  c #878577",
"r  c #97956F",
"t  c #A29F61",
"y  c #ABA766",
"u  c #B9B768",
"i  c #A9A67B",
"p  c #BAB977",
"a  c #B2AE67",
"s  c #C2BD56",
"d  c #C0BD65",
"f  c #C9C45A",
"g  c #D4CE5D",
"h  c #D8D05D",
"j  c #CAC568",
"k  c #D2CD64",
"l  c #D3CE6A",
"z  c #DAD564",
"x  c #D5D16A",
"c  c #DBD66C",
"v  c #DED96C",
"b  c #D9D464",
"n  c #DCD673",
"m  c #DDD973",
"M  c #DED97B",
"N  c #D8D376",
"B  c #CECA77",
"V  c #E1DC6D",
"C  c #E1DC74",
"Z  c #E2DD7B",
"A  c #E8E379",
"S  c #E6E16F",
"D  c #473691",
"F  c #364C89",
"G  c #22689B",
"H  c #217190",
"J  c #3977AB",
"K  c #2875AA",
"L  c #0A6398",
"P  c #59568A",
"I  c #595597",
"U  c #4E4A8D",
"Y  c #655A88",
"T  c #635A9A",
"R  c #5A6392",
"E  c #54768F",
"W  c #696688",
"Q  c #73648C",
"!  c #6C718A",
"~  c #787788",
"^  c #696597",
"/  c #726A9D",
"(  c #74659A",
")  c #7A7697",
"_  c #657C94",
"`  c #5C58A9",
"'  c #554DA5",
"]  c #655CA7",
"[  c #665EB1",
"{  c #5D7EAA",
"}  c #5E61A7",
"|  c #6D64A6",
" . c #6C64AC",
".. c #6868A7",
"X. c #7363A4",
"o. c #736BA5",
"O. c #7365AA",
"+. c #746BAB",
"@. c #796CAD",
"#. c #7967AA",
"$. c #6B75AB",
"%. c #6C7AAC",
"&. c #6479A8",
"*. c #7C73AD",
"=. c #7973A7",
"-. c #6762B2",
";. c #6C66B2",
":. c #746BB3",
">. c #756DBA",
",. c #756BB7",
"<. c #6C77B0",
"1. c #7C73B5",
"2. c #7D75BB",
"3. c #7974B6",
"4. c #9C7C99",
"5. c #847691",
"6. c #8878AB",
"7. c #947BAC",
"8. c #8275B3",
"9. c #847AB5",
"0. c #837ABB",
"q. c #867ABA",
"w. c #857AC1",
"e. c #3B86B7",
"r. c #5F8997",
"t. c #648B9A",
"y. c #66919E",
"u. c #4987AD",
"i. c #5984AD",
"p. c #4F8CB2",
"a. c #4188B5",
"s. c #538CB3",
"d. c #5D84B1",
"f. c #5797BC",
"g. c #4F90B5",
"h. c #6281AB",
"j. c #6C83AE",
"k. c #6D99AA",
"l. c #6894A2",
"z. c #6587B2",
"x. c #6E9DB1",
"c. c #6FA2BC",
"v. c #4D9CC1",
"b. c #529BC1",
"n. c #4FA0C7",
"m. c #848484",
"M. c #85858B",
"N. c #8B8A8A",
"B. c #888687",
"V. c #908F8D",
"C. c #95958A",
"Z. c #8C8B94",
"A. c #84829B",
"S. c #888798",
"D. c #908E96",
"F. c #959494",
"G. c #95959A",
"H. c #9C9C9C",
"J. c #9A9894",
"K. c #A09F9F",
"L. c #A3829D",
"P. c #A5A387",
"I. c #A8A799",
"U. c #B5B491",
"Y. c #8A87AA",
"T. c #9489A6",
"R. c #9494A2",
"E. c #9B9BA0",
"W. c #9B9AA9",
"Q. c #8A84B6",
"!. c #9688B5",
"~. c #9996B2",
"^. c #A687AD",
"/. c #A19EA8",
"(. c #B894B6",
"). c #A497B5",
"_. c #A4A3A4",
"`. c #ACABA5",
"'. c #A5A3AA",
"]. c #ACACAC",
"[. c #A9A7A7",
"{. c #B0AEAE",
"}. c #B5B4AC",
"|. c #ACACB3",
" X c #A8A4B6",
".X c #B1AEB7",
"XX c #B4B3B3",
"oX c #BCBCBC",
"OX c #B9BBB8",
"+X c #AEB0B4",
"@X c #96A5B6",
"#X c #C69BB6",
"$X c #C196A7",
"%X c #CEA2B9",
"&X c #D7A8BD",
"*X c #C0BFBF",
"=X c #BFC08B",
"-X c #C6C48A",
";X c #DFDA82",
":X c #D8D486",
">X c #D9D697",
",X c #E1DD83",
"<X c #E1DC8A",
"1X c #E3DF92",
"2X c #E6E28D",
"3X c #E6E285",
"4X c #E7E498",
"5X c #DBD8A4",
"6X c #C5C5BC",
"7X c #C6C8A9",
"8X c #E5E3A3",
"9X c #EBE9B6",
"0X c #8D85C4",
"qX c #9287C2",
"wX c #B8B7C2",
"eX c #C5B0C0",
"rX c #E1ADC5",
"tX c #E2B0C4",
"yX c #C4C4C3",
"uX c #CCCBC8",
"iX c #DCDCDC",
"pX c #D5D4D4",
"aX c #D0D0CF",
"sX c #E5E5E5",
"dX c #EBEBEA",
"fX c #FFFFFF",
"gX c #F3F3F3",
"hX c None",
/* pixels */
"hXhXhXhXhXhXhXhXhXhXhXhXhXhXyX+X'.'.|.oXuXhXhXhXhXhXhXhXhXhXhXhXhXhXhXhXhXhXhXhXhXhXhXhXhXhXhXhXhXhX",
"hXhXhXhXhXhXhXhXhXhXhXhXhX.X~.~.Y.Y.!.~./.|.hXhXhXhXhXhXhXhXhXhXhXhXhXhXhXhXhXhXhXhXhXhXhXhXhXhXhXhX",
"hXhXhXhXhXhXhXhXhXhXhXhX|.!.+.;.[ ` -.+./ D.}.hXhXhXhXhXhXhXhXhXhXhXhXhXhXhXhXhXhXhXhXhXhXhXhXhXhXhX",
"hXhXhXhXhXhXhXhXhXhXhX XY.2.,. .+.8.+...;.@.S./.hXhXhXhXhXhXhXhXhXhXhXhXhXhXhXhX+X|.hXhXhXhXhXhXhXhX",
"hXhXhXhXhXhXhXhXhXhX].R.] ;.1.7.^.(.^.7.8.] P S.`.|.|.'./.'.'.XXhXhXhXhXhXwXwX X X~.W.XX*XhXhXhXhXhX",
"hXhXhXhXhXhXhXhXhXhXR.8.1. .6.#XrXrXrX%X^.( . % ) Y.9.=.+./ / ) Z.`.6XOX X!.0.0.0.2.1.) S.XXhXhXhXhX",
"hXhXhXhXhXhXhXhXhX|.=.,.>.O.6.$X&X%X%X$X4.Q P T o.2.2.:.:.+.o.o.=.Z.H.~.Q.3.:.-.-.-.-.-.=.R.].hXhXhX",
"hXhXhXhXhXhXhXhXhXR.| [ >.:.=.T.D.S.5.1 , Q #.q.w.0.0X0.0.0.2.3. .P P o.:.;.;.;.....;.>.:.Q D.uXhXhX",
"hXhXhXhXhXhXhXhX`.G./ =.Q.~. X XOXoXG.~ I ] ,.w.w.0X0X0XQ.0.2.3.:. .| O.7.(.#X%X#X(.!.3.` ] ) K.hXhX",
"hXhXhXhXhXhXhXhXhX'.A.A.W..XhXhXhXhXH.! ] [ +.@.*.q.0.0.0.0.1.1.1.2.3.^ 4.#XrXrXrX&X#X^.*. .o.M.hXhX",
"hXhXhXhXhXhXhXhXhXhXoXhXhXhXhXhXhXwX> + > 1 > , * U U ' -.>.2.0.0.3.o.P Y 5.4.4.(.%XtXrX(.@.^ ) _.hX",
"hXhXhXhXhXhXhXhXhXhXhXhXhXhXhXhXhXG.1 2 9 s 8 8 y w q > W T | ;.:.2.+.T Y Y Y Y ( !.(.&X%X^.#.T R.hX",
"hXhXhXhXhXhXhXhXhXhXhXhXhXhXhXhX'.; 4 f V V V V V h s 7 5 @ & U [ 1.8.1.+...U . . F ` ^.#X(.7.I R.}.",
"hXhXhXhXhXhXhXhXhXhXhXhXhXhXhXhXF.# 9 V V V V V V V V k j u t e * I ` ,.2.8.o.P X X F X.7.4.5.U S.`.",
"hXhXhXhXhXhXhXhXhXhXhXhXhXhXhXG.r 2 g A V x c N c C Z Z Z Z x 0 5 # P | :.w.0.o.+ + W T ] 5.( I S.I.",
"hXhXhXhXhXhXhXhXhXhXhXhXhXhXhX~ r 0 v A x V Z Z Z ,XZ C Z ,XZ C k 9 4 = U ` >.8.W 5.K.) I o.o.T A.G.",
"hXhXhXhXhXhXhXhXhXhXhXhXhXhX{.- 4 j k x N N B M M M m M M ;XZ S C b s 7 q * .. .P Z.}.G.^ +. . .A.V.",
"hXhXaXhXhXhXhXhXhXhXhXhXhX|.F.# 7 k 0 7 M B r p N c m M ;XM c c v n C v s 2 % U U S.6X}.Z.o.-.:.A.N.",
"hXhXG.M.M._.hXhXhXhXhXhXW.W - 3 9 k 3 5 >X-X# 8 k v C M M c c c c v v v h f y q % ~ yXhX{.5.] ` ) F.",
"hXH.; ; ; N.F.I.[.[.].K.N.@   9 c x w r >X:X5 0 k C m M m m c c v c c n S S N i > ~ hXhXhXG.) I A.K.",
"wXP.5 w w + + # @ = @ # 5 3 f c M ;X:X:X:Xn j x m M m m M M M c b c M ,Xm z 2X5XI.V.hXhXhXOX_.D._.yX",
"W.C.3 8 y     0 8 8 8 8 9 x v m M 2X3X3Xm m A A m m c c m M n m c ,X1X1X,Xc 4X8XU.J.hXhXhXhXXX[.hXhX",
"A.i 0 f a 5 9 A S z S A A A Z n m m m c c M ;XM c c c m n m c c M 8X9X8X<XM 2X>XI.G.hXhXhXhXhXhXhXhX",
"M.i g u y 8 u z g f 9 f j N C C v m c c m M ;XM N m c m m m b M 1X4X8X4X<X,X2X>XI.K.hXhXhXhXhXhXhXhX",
"t.i j a w 4 a d 8 4 4 4 w a j N V z z c n Z ,XC v v c c c c c ;X4X<X;X<X;X;X2X>XI.E.hXhXhXhXhXhXhXhX",
"B.P.U.w @ @ q C.V.F.G.G.V.; < a l V z b x c x c c c v b b v c m M m n ;XM c ;X>XI.E.hXhXhXhXhXhXhXhX",
"/.J.e ; , m.D.G.R.hXhXhXD.~ : q p 1XZ V V C C C m m m m v v m m v v m Z Z A 2X>XI.G.hXhXhXhXhXhXhXhX",
"uXF.+ - N.XXhXhXhXhXhXhXhXhX/.+ P.9X4XV Z Z ,XZ C C Z ,XZ C v V m v Z ,X3X3X4X5XI.D.hXhXhXhXhXhXhXhX",
"hXhXH._.hXhXhXhXhXhXhXhXhXhXoX- G.6X8X1XC c c x z C ;X,Xc h h h k g b N M Z :X-XH.R.hXhXhXhXhXhXhXhX",
"hXhXhXhXhXhXhXhXhXhXhXhXhXhXhXm.S.@XOX7XU.p d p d U.-X-Xp p u u u u a p p p i r Z.'.hXhXhXhXhXhXhXhX",
"hXhXhXhXhXhXhXhXhXhXhXhXhXhXhXB.t.e.b.c.x.x.x.k.x.k.k.k.l.y.l.y.r.r.r.r.r.y.E % M._.hXhXhXhXhXhXhXhX",
"hXhXhXhXhXhXhXhXhXhXhXhXhXhXhXB._ K K e.e.e.e.e.a.a.J a.J J J K K G G G G G L F M.`.hXhXhXhXhXhXhXhX",
"hXhXhXhXhXhXhXhXhXhXhXhXhXhXhXm.! I ..&.&.d.d.z.z.z.j.%.$.o.$./ ^ ^ R R R R P W _.hXhXhXhXhXhXhXhXhX",
"hXhXhXhXhXhXhXhXhXhXhXhXhXhXhX~ Q X.o.o.+.o.o.=.*.*.8.9.8.9.q.9.q.9.8.+.O.@.I ! K.}.hXhXhXhXhXhXhXhX",
"hXhXhXhXhXhXhXhXhXhXhXhXhXhXhX> ^ O.:.@.O.o.X.#.#.#.8.8.q.q.q.!.qX!.Q.1.,.8.T W _.yXiXhXhXhXhXhXhXhX",
"hXhXhXhXhXhXhXhXhXhXhXhXhXhXhX: E d.d.z.d.d.d.h.d.{ &.&.&.&.%.$.%.%.$.$.$.&.. $ *XsXgXaX`.hXhXhXhXhX",
"hXhXhXhXhXhXhXhXhXhXhXhXhXhX{.: E a.g.s.p.s.p.s.s.g.p.p.p.p.p.u.s.p.s.s.s.s.O : pXfXfXiX+XhXhXhXhXhX",
"hXhXhXhXhXhXhXhXhXhXhXhXhXhX[.! E u.u.u.p.s.s.f.f.f.b.v.b.b.v.v.v.v.v.b.n.v.H y.sXfXfXsXoXhXhXhXhXhX",
"hXhXhXhXhXhXhXhXhXhXhXhXhXhX_.$ P <.<.3.$.%.<.<.%.%.z.%.&.h.{ { &.h.h.h.z.{ F Z.dXfXfXdXyXoXhXhXhXhX",
"hXhXhXhXhXhXhXhXhXhXhXhXhXhX[.- Y O.#.#.#.#.O.O.X.| X.X.X.| ( ( X./ / / o.^ o M.sXfXfXsXoXhXhXhXhXhX",
"hXhXhXhXhXhXhXhXhXhXhXhXhXhXoXB.~ T / o.+. . . .O.O.;.:.:.3.0.0.2.2.2.0.w.w.D ) iXfXfXsXXXhXhXhXhXhX",
"hXhXhXhXhXhXhXhXhXhXhXhXhXhXhX{.G.~ W W Y.Y.Y.) ^ ^ =.Y.Y.9.o.=.*.9.8.1.:.@.P 5.uXdXgXiXhXhXhXhXhXhX",
"hXhXhXhXhXhXhXhXhXhXhXhXhXhXhXhXuXI.; - _.*XXXB.- - M.'.'.D.$ $ ~ 5.) % & * : D.XXaXiXhXhXhXhXhXhXhX",
"hXhXhXhXhXhXhXhXhXhXhXhXhXhXhXhXhXhXF.m.hXhXhXV.B.N.J.hXhXXX> B.+XyX].~ > F._.hXhXhXhXhXhXhXhXhXhXhX",
"hXhXhXhXhXhXhXhXhXhXhXhXhXhXhXhXhXhX_.F.hXhXhXhXI.[.hXhXhXhXG._.hXhXhXJ.C.`.hXhXhXhXhXhXhXhXhXhXhXhX",
"hXhXhXhXhXhXhXhXhXhXhXhXhXhXhX*X].J.m.m.hXhXhXhXE.H.hXhXhXhXJ.H.hXhXhX'._._.hXhXhXhXhXhXhXhXhXhXhXhX",
"hXhXhXhXhXhXhXhXhXhXhXhXhXhXhXXXH.B.N.H.hXhXhXF.V.K.hXhXhXhXN.F.hXhXhXH.H.H.hXhXhXhXhXhXhXhXhXhXhXhX",
"hXhXhXhXhXhXhXhXhXhXhXhXhXhXhX_.G.B._.*XhXhX+XZ.e '.hXhXhX`.1 F.hXhXoXm.B._.hXhXhXhXhXhXhXhXhXhXhXhX",
"hXhXhXhXhXhXhXhXhXhXhXhXhXhXhXhXhXhXhXhXhXhXOX_.I.hXhXhXoX].H.{.hXaXXXF.H.OXhXhXhXhXhXhXhXhXhXhXhXhX",
"hXhXhXhXhXhXhXhXhXhXhXhXhXhXhXhXhXhXhXhXhXhXoXOXwXhXhXpXXX|.{.uXhXyXXX[.].hXhXhXhXhXhXhXhXhXhXhXhXhX"
};
