/* XPM */
static char *_e88dfa728ef49e1f847ef0c03689fdbcL8P9zMn9THeB2CV[] = {
/* columns rows colors chars-per-pixel */
"40 40 129 2 ",
"   c #2A2F33",
".  c #363B3F",
"X  c #000852",
"o  c #002953",
"O  c #003053",
"+  c #003953",
"@  c #153C54",
"#  c #1A3D54",
"$  c #233F54",
"%  c #254054",
"&  c #2D4455",
"*  c #2C4558",
"=  c #374754",
"-  c #394754",
";  c #3B4954",
":  c #424342",
">  c #40474C",
",  c #474848",
"<  c #4A4C4C",
"1  c #444C53",
"2  c #4A4F55",
"3  c #4C5055",
"4  c #4F545A",
"5  c #525455",
"6  c #585755",
"7  c #5B5956",
"8  c #54575A",
"9  c #54595E",
"0  c #6D6557",
"q  c #766A57",
"w  c #796B57",
"e  c #7A6D58",
"r  c #565A60",
"t  c #476772",
"y  c #486772",
"u  c #4F6C77",
"i  c #476A7F",
"p  c #536E78",
"a  c #577077",
"s  c #577078",
"d  c #5B737B",
"f  c #63696F",
"g  c #6B7177",
"h  c #6F747C",
"j  c #816F57",
"k  c #897458",
"l  c #967F5A",
"z  c #97825D",
"x  c #9E845A",
"c  c #A3895B",
"v  c #A88C5B",
"b  c #BE9B5E",
"n  c #9E9E7F",
"m  c #C29F5E",
"M  c #C4A05E",
"N  c #CDA65F",
"B  c #DBB161",
"V  c #E3B762",
"C  c #E4B862",
"Z  c #EDBF63",
"A  c #FDCB66",
"S  c #FFCF68",
"D  c #FFD167",
"F  c #FFD568",
"G  c #FEE77E",
"H  c #FFE97E",
"J  c #005682",
"K  c #215F82",
"L  c #266082",
"P  c #326482",
"I  c #3E6782",
"U  c #456A82",
"Y  c #4C6E83",
"T  c #4E7084",
"R  c #557282",
"E  c #5C7682",
"W  c #5F7882",
"Q  c #627982",
"!  c #6A7E83",
"~  c #757A82",
"^  c #797F87",
"/  c #6A808A",
"(  c #718282",
")  c #7A8385",
"_  c #7C8982",
"`  c #7C8189",
"'  c #768992",
"]  c #7D8F98",
"[  c #838D82",
"{  c #869082",
"}  c #8B9482",
"|  c #939982",
" . c #9D9F81",
".. c #83949D",
"X. c #9EA081",
"o. c #A5A582",
"O. c #A9A781",
"+. c #AEAB81",
"@. c #B0AC81",
"#. c #8C9BA4",
"$. c #A5ABB5",
"%. c #C3BB81",
"&. c #C8BF81",
"*. c #C9C081",
"=. c #D0C581",
"-. c #DDCF81",
";. c #E5D680",
":. c #ECDB80",
">. c #FBE780",
",. c #FDE880",
"<. c #FEE980",
"1. c #FEEC80",
"2. c #FFEF80",
"3. c #FFF280",
"4. c #FFF380",
"5. c #FFF480",
"6. c #B5C0C8",
"7. c #BAC1CC",
"8. c #C5CCD7",
"9. c #CBD4DC",
"0. c #D5DEE6",
"q. c #D3DBE8",
"w. c #DFE7F4",
"e. c #E2EAF6",
"r. c #E6EEFB",
"t. c #EFF6FE",
"y. c #F0F7FF",
"u. c #F4FAFF",
"i. c #F8FEFF",
/* pixels */
"<.<.<.<.<.<.<.<.<.<.<.<.<.<.<.<.<.<.<.G S A A A A A S A A S A A A S A A A A A S ",
"2.2.2.2.2.2.2.2.2.<.2.2.2.2.2.2.2.2.2.G S S S D D D D D D A A A D D D D D D D D ",
"+.+.+.+.+.+.+.o.-.4.:.O.+.+.+.+.+.O.%.G S b c v v v v v x A D B x v v c v v v v ",
"U U U U U U Y J %.4.;.P U U U U U K [ G S w o % @ @ # # O V F m X & @ @ @ @ @ @ ",
"! Q Q Q Q Q ( U *.5.;.E Q Q ! Q ! E | G D k - 6 5 5 5 6 1 C F M $ 6 5 6 5 6 5 5 ",
"Q Q Q W Q E Q U &.5.;.R Q Q Q E Q Y | G D k = 3 3 3 3 3 - V F M + 6 2 2 2 2 3 3 ",
"W Q Q W Q Q ! I &.5.G R Q Q W Q Q Y | G D k & 5 3 3 3 3 ; C F M + 5 2 3 2 2 3 3 ",
"W W W W Q Q Q I %.>.-.R Q Q W Q Q R | G D k & 5 3 3 3 3 ; C F M + 6 2 2 3 3 2 3 ",
"Q Q d Q W W Q U &.5.;.R Q Q W W h T } G A k & 5 3 3 3 3 ; C F M + 5 2 2 3 3 2 2 ",
"W W W Q W W ! I &.H ;.R Q Q Q W W T | G D k & 5 3 3 3 3 ; C F M + 6 2 2 3 2 2 2 ",
"Q Q Q Q Q Q ! U *.5.;.E Q Q Q Q / p } G D k = 5 3 3 5 5 ; C F M @ 6 5 3 5 3 5 5 ",
"R R R R R R W L *.5.;.U R R R R R I n H S j + ; ; = ; ; % C F M o 1 = = - - - - ",
"[ [ [ [ _ [ [ ( *.5.;._ [ [ [ [ { _ X.2.D x 0 q q q q q 0 C F N 7 e q q q q q q ",
">.>.>.>.>.<.>.>.<.2.<.>.>.<.>.>.>.>.<.G A A A A A A A A A A A A A A A A A A A A ",
"2.2.<.2.2.2.2.2.2.2.<.2.2.2.2.2.2.2.4.G D A D D A A D D D A D S D S D D A A S S ",
" . . . .X. . . .X.X.X.X. . . . . . .X. .z l l l l z l l z l l l l l l l l l l l ",
"T T Y Y Y Y Y Y Y Y R U Y Y Y R Y Y Y U * $ * * * & $ % % * * * & $ $ $ & * * * ",
"s s s d Q Q Q d s s d Q Q Q W s s s Q Q 8 2 : : : < 5 5 5 , : : , 6 5 5 , : : : ",
"#.#.#.] E Q E ..#.#...Q W d ' #.#.#./ d 4 r ^ ^ ` f 1 2 2 ~ ^ ` h 1 3 1 g ` ^ ^ ",
"u.y.i.9.t ! u 0.i.u.r.Q Q t 6.i.t.u.#.a > ^ e.w.r.$.  5 5 q.e.r.8.. 9   7.r.e.e.",
"y.y.i.9.t ! u 0.u.u.e.! Q y 6.i.t.u.#.p ; ` e.w.r.$.  5 4 q.e.r.8.$ 7   7.r.w.w.",
"#.#.#.] W Q E ] #.#...W Q d ' #.#.#./ d 3 9 ^ ^ [ f 1 2 3 ~ ^ ^ h 1 5 , g ` ) ) ",
"s s a d Q Q ! d s s s ! Q Q Q s a p Q Q 6 5 : : : < 5 5 5 , > : , 5 5 5 < : : : ",
"R T Y Y Y Y U Y T Y R U Y U Y Y Y Y Y i & $ & * * $ $ $ $ * * * * $ $ $ & * & & ",
" . . . . . .X. . .X.X. . .X. . . . . . .z l l l l l l l l l l l l l l l l l z l ",
"2.2.2.2.2.<.2.2.2.2.2.2.2.2.2.2.2.2.4.H D S S S S S S A S S S S D S D S D D D A ",
">.>.>.>.>.>.>.>.<.<.>.2.>.>.>.>.>.>.G G S A A A A A A A A A A A A A A A A A A A ",
"[ [ [ [ [ [ [ ( =.4.;._ [ [ [ [ [ ) o.G A x 0 e q q q q 0 C D N 7 w q q q q 0 q ",
"R R R R R R E K *.5.;.U R p R p R U } G S e + ; - - - ; $ V F m o 1 ; ; = ; ; ; ",
"Q Q Q Q Q Q ! U *.5.;.R Q / W / Q R | G S k - 6 3 5 5 5 1 V F M # 6 3 5 3 5 3 3 ",
"W W W Q W W ! I *.5.;.R W W W W h T } H S k = 3 3 3 3 3 - C F m + 5 2 2 3 3 1 3 ",
"Q W W Q W Q Q U *.5.;.R Q Q W W W T | H S k & 5 3 3 3 4 ; C F M + 5 2 3 3 3 3 3 ",
"W W W W Q E Q I *.H ;.R Q W W W Q Y  .G D k & 3 3 3 3 3 ; C F M + 5 3 3 3 3 3 3 ",
"W Q W Q Q E ! I *.5.;.R Q Q W Q Q R } G S k = 3 3 3 3 3 ; C F M + 6 2 3 3 3 3 3 ",
"E Q W Q Q Q Q U *.5.;.R W h W Q Q Y | H S k & 5 3 3 3 3 ; C F M + 6 2 3 3 3 3 3 ",
"Q ! Q Q Q Q ( U *.5.;.W / / Q Q ! R | H S k ; 6 5 5 5 6 1 C F M % 7 3 5 5 5 5 5 ",
"U U U U U U Y J %.2.;.P i R Y U U K { G S w o $ @ @ # # O V F m X & @ @ @ @ @ @ ",
"+.@.+.+.+.O.@.o.-.4.:.O.n n @.n +.O.%.G S b c v v v v v c Z D B c v v v v v v v ",
"G 2.2.2.4.2.2.2.2.<.2.2.2.4.H 5.4.2.H G S S D D D D D D D A A D D D D D D D D D ",
"<.<.<.<.<.<.<.<.<.<.<.<.<.2.4.5.<.<.<.G S A A A S A A S A A A A A A A A A A A A "
};
